<svg width="20" height="19" viewBox="0 0 20 19" fill="none" xmlns="http://www.w3.org/2000/svg">
<path d="M4.54023 19V6.17992H0.252881V19H4.54023ZM2.3973 4.42987C3.89211 4.42987 4.8227 3.44537 4.8227 2.21512C4.79461 0.956944 3.8921 0 2.42577 0C0.958318 0 0 0.956944 0 2.21512C0 3.44537 0.93022 4.42987 2.3692 4.42987H2.3973ZM6.91318 19H11.2001V11.8415C11.2001 11.4588 11.2282 11.0752 11.3414 10.8019C11.6512 10.036 12.3567 9.24326 13.5413 9.24326C15.0923 9.24326 15.713 10.4188 15.713 12.1424V19H20V11.6494C20 7.71178 17.8852 5.87944 15.0645 5.87944C12.7519 5.87944 11.7363 7.16405 11.1721 8.03908H11.2005V6.1803H6.91355C6.96937 7.38299 6.91318 19 6.91318 19Z" fill="white"/>
</svg>
