<svg width="45" height="41" viewBox="0 0 45 41" fill="none" xmlns="http://www.w3.org/2000/svg">
<circle cx="23.4711" cy="22.8237" r="5.55022" fill="#050505"/>
<path d="M28.8134 1.13281L23.4717 22.4997" stroke="#050505" stroke-width="5"/>
<path d="M38.1645 12.9399L20.904 26.057" stroke="#050505" stroke-width="5"/>
<path d="M23.1219 24.3438L5.51802 29.4979" stroke="#050505" stroke-width="5"/>
<path d="M42.8442 24.9711L24.6157 22.9251" stroke="#050505" stroke-width="5"/>
<path d="M29.3207 35.8965L20.6204 19.7482" stroke="#050505" stroke-width="5"/>
<path d="M25.7602 24.5654L17.0599 8.41713" stroke="#050505" stroke-width="5"/>
<path d="M25.7464 25.1362L9.3895 16.8348" stroke="#050505" stroke-width="5"/>
<path d="M24.8475 20.7279L16.511 37.067" stroke="#050505" stroke-width="5"/>
<circle cx="28.4899" cy="4.20862" r="4.20862" fill="#1BA6DC"/>
<circle cx="37.5543" cy="12.9498" r="4.20862" fill="#6A37C9"/>
<circle cx="29.1364" cy="35.9352" r="4.20862" fill="#EB5298"/>
<circle cx="4.20862" cy="29.4606" r="4.20862" fill="#FFC83A"/>
<circle cx="9.54972" cy="17.644" r="5.34171" fill="#6A37C9"/>
<circle cx="17.1583" cy="36.9063" r="3.2374" fill="#1BA6DC"/>
<circle cx="41.7628" cy="25.2516" r="3.2374" fill="#FFC83A"/>
<circle cx="17.1583" cy="8.74082" r="3.2374" fill="#EB5298"/>
</svg>
